<svg width="861" height="390" viewBox="0 0 861 390" fill="none" xmlns="http://www.w3.org/2000/svg">
<path d="M135.734 45L136.503 44.4089C136.319 44.17 136.035 44.03 135.734 44.03C135.433 44.03 135.148 44.17 134.965 44.4089L135.734 45ZM226.234 162.75V163.72C226.603 163.72 226.94 163.51 227.104 163.179C227.267 162.847 227.228 162.452 227.003 162.159L226.234 162.75ZM45.2343 162.75L44.4652 162.159C44.24 162.452 44.2009 162.847 44.3641 163.179C44.5274 163.51 44.8648 163.72 45.2343 163.72V162.75ZM74.4134 162.75L75.1961 163.323C75.4119 163.028 75.4438 162.637 75.2785 162.311C75.1132 161.985 74.7788 161.78 74.4134 161.78V162.75ZM14.9234 244L14.1407 243.427C13.9249 243.722 13.893 244.113 14.0583 244.439C14.2236 244.765 14.558 244.97 14.9234 244.97V244ZM59.6494 244L60.4391 244.563C60.65 244.267 60.678 243.879 60.5117 243.556C60.3453 243.233 60.0126 243.03 59.6494 243.03V244ZM1 326.25L0.210222 325.687C-0.000649273 325.983 -0.0286411 326.371 0.137687 326.694C0.304016 327.017 0.636792 327.22 1 327.22L1 326.25ZM102.234 326.25H103.204C103.204 325.714 102.77 325.28 102.234 325.28V326.25ZM102.234 389H101.264C101.264 389.536 101.698 389.97 102.234 389.97V389ZM169.234 389V389.97C169.77 389.97 170.204 389.536 170.204 389H169.234ZM169.234 326.25V325.28C168.698 325.28 168.264 325.714 168.264 326.25H169.234ZM269.468 326.25V327.22C269.831 327.22 270.164 327.017 270.33 326.694C270.497 326.371 270.469 325.983 270.258 325.687L269.468 326.25ZM210.819 244V243.03C210.455 243.03 210.123 243.233 209.956 243.556C209.79 243.879 209.818 244.267 210.029 244.563L210.819 244ZM256.544 244V244.97C256.91 244.97 257.244 244.765 257.41 244.439C257.575 244.113 257.543 243.722 257.327 243.427L256.544 244ZM197.054 162.75V161.78C196.689 161.78 196.355 161.985 196.189 162.311C196.024 162.637 196.056 163.028 196.272 163.323L197.054 162.75ZM134.965 45.5911L225.465 163.341L227.003 162.159L136.503 44.4089L134.965 45.5911ZM46.0034 163.341L136.503 45.5911L134.965 44.4089L44.4652 162.159L46.0034 163.341ZM74.4134 161.78H45.2343V163.72H74.4134V161.78ZM15.706 244.573L75.1961 163.323L73.6308 162.177L14.1407 243.427L15.706 244.573ZM59.6494 243.03H14.9234V244.97H59.6494V243.03ZM1.78978 326.813L60.4391 244.563L58.8596 243.437L0.210222 325.687L1.78978 326.813ZM102.234 325.28H1V327.22H102.234V325.28ZM103.204 389V326.25H101.264V389H103.204ZM169.234 388.03H102.234V389.97H169.234V388.03ZM168.264 326.25V389H170.204V326.25H168.264ZM269.468 325.28H169.234V327.22H269.468V325.28ZM210.029 244.563L268.678 326.813L270.258 325.687L211.608 243.437L210.029 244.563ZM256.544 243.03H210.819V244.97H256.544V243.03ZM196.272 163.323L255.762 244.573L257.327 243.427L197.837 162.177L196.272 163.323ZM226.234 161.78H197.054V163.72H226.234V161.78Z" fill="black"/>
<path d="M631.769 166L632.605 165.502C632.429 165.208 632.112 165.028 631.769 165.028C631.427 165.028 631.11 165.208 630.934 165.502L631.769 166ZM677.29 242.332V243.305C677.639 243.305 677.962 243.117 678.135 242.812C678.308 242.508 678.304 242.135 678.125 241.834L677.29 242.332ZM586.249 242.332L585.414 241.834C585.235 242.135 585.231 242.508 585.404 242.812C585.577 243.117 585.899 243.305 586.249 243.305V242.332ZM600.926 242.332L601.771 242.812C601.942 242.511 601.941 242.142 601.766 241.843C601.592 241.544 601.272 241.36 600.926 241.36V242.332ZM571.003 295.003L570.158 294.523C569.987 294.824 569.989 295.193 570.163 295.492C570.337 295.791 570.657 295.975 571.003 295.975V295.003ZM593.5 295.003L594.351 295.474C594.517 295.172 594.512 294.806 594.338 294.509C594.163 294.213 593.844 294.031 593.5 294.031V295.003ZM564 348.322L563.149 347.851C562.983 348.152 562.988 348.519 563.162 348.816C563.337 349.112 563.656 349.294 564 349.294V348.322ZM614.919 348.322H615.892C615.892 347.785 615.456 347.35 614.919 347.35V348.322ZM614.919 389H613.947C613.947 389.537 614.382 389.972 614.919 389.972V389ZM648.619 389V389.972C649.157 389.972 649.592 389.537 649.592 389H648.619ZM648.619 348.322V347.35C648.082 347.35 647.647 347.785 647.647 348.322H648.619ZM699.036 348.322V349.294C699.38 349.294 699.699 349.112 699.874 348.816C700.048 348.519 700.053 348.152 699.887 347.851L699.036 348.322ZM669.536 295.003V294.031C669.192 294.031 668.873 294.213 668.698 294.509C668.524 294.806 668.519 295.172 668.685 295.474L669.536 295.003ZM692.536 295.003V295.975C692.882 295.975 693.202 295.791 693.376 295.492C693.55 295.193 693.552 294.824 693.381 294.523L692.536 295.003ZM662.613 242.332V241.36C662.267 241.36 661.947 241.544 661.772 241.843C661.598 242.142 661.596 242.511 661.767 242.812L662.613 242.332ZM630.934 166.498L676.454 242.83L678.125 241.834L632.605 165.502L630.934 166.498ZM587.084 242.83L632.605 166.498L630.934 165.502L585.414 241.834L587.084 242.83ZM600.926 241.36H586.249V243.305H600.926V241.36ZM571.849 295.483L601.771 242.812L600.081 241.852L570.158 294.523L571.849 295.483ZM593.5 294.031H571.003V295.975H593.5V294.031ZM564.851 348.793L594.351 295.474L592.649 294.532L563.149 347.851L564.851 348.793ZM614.919 347.35H564V349.294H614.919V347.35ZM615.892 389V348.322H613.947V389H615.892ZM648.619 388.028H614.919V389.972H648.619V388.028ZM647.647 348.322V389H649.592V348.322H647.647ZM699.036 347.35H648.619V349.294H699.036V347.35ZM668.685 295.474L698.185 348.793L699.887 347.851L670.387 294.532L668.685 295.474ZM692.536 294.031H669.536V295.975H692.536V294.031ZM661.767 242.812L691.69 295.483L693.381 294.523L663.458 241.852L661.767 242.812ZM677.29 241.36H662.613V243.305H677.29V241.36Z" fill="black"/>
<path fill-rule="evenodd" clip-rule="evenodd" d="M731.795 0.465853C731.615 0.19232 731.31 0.0276184 730.982 0.0276184C730.655 0.0276184 730.35 0.19232 730.17 0.465853L642.862 133.277C642.665 133.576 642.649 133.958 642.818 134.273C642.988 134.587 643.317 134.783 643.674 134.783H670.068L640.914 181.335L642.034 183.212L672.648 134.327C672.836 134.027 672.846 133.649 672.675 133.34C672.504 133.031 672.178 132.839 671.824 132.839H645.477L730.982 2.77015L816.487 132.839H790.14C789.787 132.839 789.461 133.031 789.29 133.34C789.118 133.649 789.128 134.027 789.316 134.327L845.776 224.481H803.419C803.067 224.481 802.743 224.671 802.571 224.977C802.399 225.284 802.406 225.66 802.589 225.96L858.268 317.251H763.301C762.764 317.251 762.329 317.687 762.329 318.224V388.028H699.636V318.224C699.636 317.687 699.201 317.251 698.664 317.251H681.845L682.921 319.196H697.691V345.892L699.036 348.322H697.691V389C697.691 389.537 698.127 389.972 698.664 389.972H763.301C763.838 389.972 764.273 389.537 764.273 389V319.196H860C860.352 319.196 860.676 319.006 860.848 318.7C861.02 318.393 861.013 318.018 860.83 317.718L805.151 226.426H847.532C847.886 226.426 848.212 226.234 848.383 225.924C848.554 225.615 848.544 225.237 848.356 224.937L791.897 134.783H818.29C818.648 134.783 818.977 134.587 819.146 134.273C819.316 133.958 819.299 133.576 819.103 133.277L731.795 0.465853Z" fill="black"/>
<path d="M352.857 101.564C353.557 101.564 354.232 101.685 354.884 101.926C355.56 102.143 356.151 102.469 356.658 102.903C357.189 103.314 357.611 103.832 357.925 104.46C358.238 105.063 358.395 105.751 358.395 106.523C358.395 108.019 357.912 109.721 356.947 111.627C355.982 113.533 354.727 115.765 353.183 118.323C351.518 121.05 349.949 123.777 348.477 126.504C347.005 129.207 345.63 131.825 344.351 134.359C343.096 136.868 341.938 139.245 340.876 141.489C339.838 143.709 338.933 145.7 338.161 147.462C339.126 147.583 340.092 147.679 341.057 147.751C342.022 147.824 342.891 147.848 343.663 147.824L343.735 149.706C343.566 149.706 342.927 149.706 341.817 149.706C340.731 149.682 339.247 149.537 337.365 149.272C336.617 151.009 336.037 152.361 335.627 153.326C335.241 154.291 335.048 154.798 335.048 154.846L330.741 153.507L332.912 148.548C331.296 148.186 329.594 147.764 327.809 147.281C326.023 146.798 324.201 146.255 322.343 145.652C320.509 145.025 318.675 144.325 316.841 143.553C315.007 142.78 313.245 141.936 311.556 141.019C309.988 142.829 308.286 144.614 306.452 146.376C304.619 148.113 302.652 149.682 300.552 151.082C298.453 152.457 296.221 153.567 293.856 154.412C291.515 155.28 289.042 155.715 286.436 155.715C284.119 155.715 281.802 155.365 279.486 154.665C277.193 153.989 275.13 153 273.296 151.697C271.486 150.37 270.014 148.765 268.88 146.883C267.746 144.976 267.179 142.817 267.179 140.403C267.179 138.497 267.541 136.82 268.265 135.372C268.965 133.924 269.93 132.718 271.16 131.752C272.415 130.787 273.875 130.063 275.54 129.581C277.229 129.074 279.039 128.82 280.97 128.82C282.442 128.82 283.962 128.965 285.531 129.255C287.123 129.544 288.668 130.027 290.164 130.703C291.66 131.378 293.072 132.271 294.399 133.381C295.726 134.491 296.86 135.867 297.801 137.508L296.209 138.521C296.185 138.473 296.04 138.292 295.774 137.978C295.533 137.64 295.159 137.242 294.652 136.784C294.17 136.301 293.542 135.794 292.77 135.263C291.998 134.733 291.069 134.25 289.983 133.816C288.921 133.357 287.678 132.983 286.255 132.694C284.855 132.38 283.262 132.223 281.477 132.223C279.667 132.223 278.086 132.537 276.735 133.164C275.383 133.767 274.249 134.552 273.332 135.517C272.439 136.458 271.764 137.52 271.305 138.702C270.871 139.885 270.654 141.031 270.654 142.141C270.654 143.444 270.883 144.639 271.341 145.724C271.8 146.786 272.415 147.751 273.188 148.62C273.984 149.489 274.901 150.249 275.938 150.901C277 151.528 278.11 152.059 279.269 152.493C280.451 152.928 281.646 153.253 282.852 153.471C284.083 153.688 285.277 153.796 286.436 153.796C288.825 153.796 291.117 153.41 293.313 152.638C295.509 151.842 297.584 150.804 299.539 149.525C301.494 148.222 303.327 146.75 305.041 145.109C306.778 143.468 308.383 141.791 309.855 140.078C308.214 139.088 306.694 138.027 305.294 136.892C303.919 135.734 302.724 134.503 301.711 133.2C300.697 131.873 299.901 130.461 299.322 128.965C298.767 127.445 298.489 125.84 298.489 124.151C298.489 122.751 298.743 121.436 299.249 120.206C299.78 118.975 300.492 117.901 301.385 116.984C302.302 116.043 303.376 115.307 304.606 114.776C305.861 114.221 307.201 113.944 308.624 113.944C310.217 113.944 311.725 114.197 313.149 114.704C314.573 115.186 315.924 115.862 317.203 116.731C318.482 117.575 319.676 118.589 320.786 119.771C321.921 120.954 322.982 122.233 323.972 123.608C326.675 120.592 329.365 117.756 332.044 115.102C334.746 112.423 337.341 110.082 339.826 108.08C342.312 106.077 344.652 104.496 346.848 103.338C349.068 102.155 351.071 101.564 352.857 101.564ZM325.094 125.273C326.228 127.011 327.266 128.808 328.207 130.666C329.148 132.525 329.993 134.347 330.741 136.132C331.513 137.918 332.189 139.619 332.768 141.236C333.371 142.829 333.89 144.24 334.324 145.471C337.148 139.318 340.164 133.285 343.373 127.373C346.583 121.46 350.19 115.621 354.196 109.853C354.848 108.888 355.306 108.092 355.572 107.464C355.861 106.813 356.006 106.258 356.006 105.799C356.006 105.027 355.68 104.448 355.029 104.062C354.377 103.652 353.629 103.446 352.785 103.446C350.106 103.446 346.45 105.28 341.817 108.948C337.208 112.592 331.634 118.034 325.094 125.273ZM301.783 125.888C301.783 127.167 302.024 128.386 302.507 129.544C302.99 130.679 303.653 131.777 304.498 132.838C305.342 133.876 306.344 134.865 307.502 135.806C308.661 136.723 309.915 137.592 311.267 138.413C313.077 136.217 314.923 134.009 316.805 131.789C318.687 129.569 320.593 127.373 322.524 125.201C321.679 124.091 320.799 123.065 319.882 122.124C318.989 121.159 318.048 120.326 317.058 119.626C316.069 118.927 315.043 118.384 313.981 117.998C312.92 117.611 311.822 117.418 310.688 117.418C309.409 117.418 308.226 117.636 307.14 118.07C306.054 118.504 305.113 119.108 304.317 119.88C303.521 120.628 302.893 121.521 302.435 122.558C302 123.572 301.783 124.682 301.783 125.888ZM332.731 146.521C332.394 145.435 331.935 144.12 331.356 142.575C330.801 141.031 330.137 139.378 329.365 137.616C328.617 135.831 327.76 134.009 326.795 132.151C325.854 130.292 324.816 128.519 323.682 126.83C322.017 128.712 320.292 130.691 318.506 132.766C316.72 134.841 314.862 137.049 312.932 139.39C314.621 140.331 316.383 141.188 318.217 141.96C320.075 142.708 321.872 143.384 323.61 143.987C325.371 144.566 327.036 145.073 328.605 145.507C330.198 145.942 331.573 146.279 332.731 146.521ZM371.209 131.028C371.354 130.642 371.426 130.232 371.426 129.798C371.426 129.026 371.112 128.422 370.485 127.988C369.882 127.529 368.916 127.3 367.589 127.3C366.503 127.3 365.405 127.541 364.295 128.024C363.209 128.483 362.16 129.122 361.146 129.943C360.133 130.763 359.179 131.74 358.287 132.875C357.418 134.009 356.658 135.239 356.006 136.567C355.379 137.894 354.872 139.305 354.486 140.802C354.124 142.274 353.943 143.758 353.943 145.254C353.943 146.46 354.076 147.486 354.341 148.331C354.606 149.175 354.981 149.863 355.463 150.394C355.946 150.925 356.525 151.311 357.201 151.552C357.876 151.769 358.636 151.878 359.481 151.878C361.146 151.878 362.763 151.504 364.331 150.756C365.9 150.008 367.384 149.042 368.784 147.86C370.207 146.653 371.51 145.314 372.693 143.842C373.899 142.37 374.961 140.922 375.878 139.499L377.218 140.512C375.914 142.708 374.527 144.639 373.055 146.304C371.583 147.944 370.075 149.32 368.53 150.43C366.986 151.54 365.417 152.373 363.825 152.928C362.232 153.483 360.676 153.76 359.155 153.76C357.949 153.76 356.79 153.579 355.68 153.217C354.594 152.855 353.629 152.312 352.785 151.588C351.964 150.84 351.301 149.887 350.794 148.729C350.311 147.57 350.07 146.195 350.07 144.602C350.07 142.72 350.335 140.946 350.866 139.281C351.421 137.592 352.145 136.036 353.038 134.612C353.955 133.188 355.005 131.909 356.187 130.775C357.37 129.617 358.6 128.639 359.879 127.843C361.182 127.047 362.485 126.444 363.788 126.033C365.116 125.599 366.358 125.382 367.517 125.382C368.699 125.382 369.664 125.551 370.412 125.888C371.161 126.202 371.752 126.588 372.186 127.047C372.621 127.505 372.91 127.988 373.055 128.495C373.224 129.001 373.308 129.436 373.308 129.798C373.308 130.377 373.224 130.992 373.055 131.644C372.886 132.295 372.645 132.899 372.331 133.454C372.041 133.985 371.667 134.431 371.209 134.793C370.774 135.155 370.292 135.336 369.761 135.336C369.23 135.336 368.772 135.167 368.385 134.829C367.999 134.467 367.806 134.021 367.806 133.49C367.806 133.466 367.818 133.321 367.843 133.055C367.891 132.79 368.011 132.513 368.204 132.223C368.398 131.909 368.687 131.632 369.073 131.39C369.483 131.149 370.051 131.028 370.774 131.028H371.209ZM396.33 131.028C396.474 130.642 396.547 130.232 396.547 129.798C396.547 129.026 396.233 128.422 395.606 127.988C395.002 127.529 394.037 127.3 392.71 127.3C391.624 127.3 390.526 127.541 389.416 128.024C388.33 128.483 387.28 129.122 386.267 129.943C385.253 130.763 384.3 131.74 383.407 132.875C382.538 134.009 381.778 135.239 381.127 136.567C380.499 137.894 379.993 139.305 379.607 140.802C379.245 142.274 379.064 143.758 379.064 145.254C379.064 146.46 379.196 147.486 379.462 148.331C379.727 149.175 380.101 149.863 380.584 150.394C381.066 150.925 381.646 151.311 382.321 151.552C382.997 151.769 383.757 151.878 384.602 151.878C386.267 151.878 387.884 151.504 389.452 150.756C391.021 150.008 392.505 149.042 393.904 147.86C395.328 146.653 396.631 145.314 397.814 143.842C399.02 142.37 400.082 140.922 400.999 139.499L402.338 140.512C401.035 142.708 399.648 144.639 398.176 146.304C396.704 147.944 395.195 149.32 393.651 150.43C392.107 151.54 390.538 152.373 388.945 152.928C387.353 153.483 385.796 153.76 384.276 153.76C383.069 153.76 381.911 153.579 380.801 153.217C379.715 152.855 378.75 152.312 377.905 151.588C377.085 150.84 376.421 149.887 375.914 148.729C375.432 147.57 375.19 146.195 375.19 144.602C375.19 142.72 375.456 140.946 375.987 139.281C376.542 137.592 377.266 136.036 378.159 134.612C379.076 133.188 380.125 131.909 381.308 130.775C382.49 129.617 383.721 128.639 385 127.843C386.303 127.047 387.606 126.444 388.909 126.033C390.236 125.599 391.479 125.382 392.637 125.382C393.82 125.382 394.785 125.551 395.533 125.888C396.281 126.202 396.872 126.588 397.307 127.047C397.741 127.505 398.031 127.988 398.176 128.495C398.344 129.001 398.429 129.436 398.429 129.798C398.429 130.377 398.344 130.992 398.176 131.644C398.007 132.295 397.765 132.899 397.452 133.454C397.162 133.985 396.788 134.431 396.33 134.793C395.895 135.155 395.413 135.336 394.882 135.336C394.351 135.336 393.892 135.167 393.506 134.829C393.12 134.467 392.927 134.021 392.927 133.49C392.927 133.466 392.939 133.321 392.963 133.055C393.011 132.79 393.132 132.513 393.325 132.223C393.518 131.909 393.808 131.632 394.194 131.39C394.604 131.149 395.171 131.028 395.895 131.028H396.33ZM417.903 145.109C416.793 146.412 415.695 147.619 414.609 148.729C413.523 149.815 412.437 150.756 411.351 151.552C410.289 152.324 409.228 152.928 408.166 153.362C407.104 153.82 406.03 154.05 404.944 154.05C404.027 154.05 403.195 153.881 402.447 153.543C401.723 153.229 401.095 152.783 400.565 152.204C400.01 151.6 399.587 150.876 399.298 150.032C399.008 149.163 398.863 148.198 398.863 147.136C398.863 145.471 399.237 143.758 399.985 141.996C400.709 140.235 401.626 138.521 402.736 136.856C403.871 135.191 405.113 133.611 406.465 132.114C407.84 130.618 409.143 129.291 410.374 128.133L411.93 129.219C411.062 130.498 410.084 131.945 408.998 133.562C407.937 135.179 406.923 136.856 405.958 138.594C405.017 140.307 404.22 142.032 403.569 143.77C402.917 145.483 402.592 147.076 402.592 148.548C402.592 149.537 402.773 150.382 403.135 151.082C403.521 151.781 404.245 152.131 405.306 152.131C406.465 152.131 407.732 151.673 409.107 150.756C410.507 149.839 411.93 148.644 413.378 147.172C414.85 145.7 416.31 144.047 417.758 142.213C419.23 140.355 420.618 138.485 421.921 136.603C423.224 134.721 424.406 132.923 425.468 131.209C426.554 129.496 427.435 128.036 428.11 126.83L430.753 128.133C429.353 130.884 428.002 133.454 426.699 135.843C425.42 138.208 424.274 140.343 423.26 142.25C422.271 144.132 421.474 145.773 420.871 147.172C420.292 148.572 420.002 149.682 420.002 150.502C420.002 150.84 420.075 151.118 420.219 151.335C420.364 151.552 420.594 151.661 420.907 151.661C421.8 151.685 422.777 151.299 423.839 150.502C424.925 149.706 426.011 148.705 427.097 147.498C428.207 146.292 429.281 144.976 430.318 143.553C431.38 142.105 432.333 140.753 433.178 139.499L434.481 140.512C434.336 140.753 434.035 141.248 433.576 141.996C433.118 142.744 432.551 143.601 431.875 144.566C431.199 145.531 430.427 146.545 429.558 147.607C428.69 148.668 427.773 149.646 426.807 150.539C425.842 151.407 424.841 152.131 423.803 152.71C422.765 153.265 421.74 153.543 420.726 153.543C420.099 153.543 419.532 153.434 419.025 153.217C418.542 153 418.132 152.71 417.794 152.348C417.456 151.986 417.191 151.564 416.998 151.082C416.805 150.599 416.708 150.092 416.708 149.561C416.708 148.934 416.805 148.246 416.998 147.498C417.215 146.75 417.517 145.954 417.903 145.109ZM456.018 140.512C455.656 141.043 455.222 141.767 454.715 142.684C454.233 143.577 453.665 144.554 453.014 145.616C452.362 146.653 451.638 147.715 450.842 148.801C450.07 149.887 449.213 150.864 448.272 151.733C447.355 152.602 446.354 153.314 445.268 153.869C444.182 154.424 443.024 154.701 441.793 154.701C441.117 154.701 440.478 154.593 439.874 154.375C439.271 154.182 438.74 153.869 438.282 153.434C437.823 153 437.461 152.469 437.196 151.842C436.93 151.19 436.798 150.43 436.798 149.561C436.798 148.379 437.027 147.148 437.485 145.869C437.968 144.566 438.523 143.311 439.15 142.105C439.778 140.898 440.405 139.8 441.033 138.811C441.66 137.797 442.119 136.989 442.408 136.386C442.698 135.782 442.843 135.263 442.843 134.829C442.843 134.515 442.734 134.238 442.517 133.997C442.324 133.755 442.07 133.526 441.757 133.309C441.467 133.068 441.153 132.826 440.816 132.585C440.502 132.319 440.236 132.006 440.019 131.644C439.416 132.609 438.801 133.586 438.173 134.576C437.618 135.42 437.015 136.374 436.363 137.435C435.712 138.473 435.084 139.499 434.481 140.512L433.178 139.499L440.924 127.373L441.974 127.916C441.926 128.06 441.841 128.29 441.72 128.603C441.624 128.917 441.576 129.255 441.576 129.617C441.576 129.882 441.612 130.148 441.684 130.413C441.781 130.654 441.962 130.884 442.227 131.101C443.192 131.97 443.953 132.645 444.508 133.128C445.063 133.586 445.461 133.96 445.702 134.25C445.968 134.515 446.124 134.745 446.173 134.938C446.245 135.107 446.281 135.336 446.281 135.625C446.281 135.915 446.233 136.265 446.136 136.675C446.04 137.085 445.871 137.58 445.63 138.159C445.413 138.738 445.099 139.426 444.689 140.222C444.303 140.995 443.808 141.9 443.205 142.937C442.843 143.565 442.481 144.204 442.119 144.856C441.781 145.483 441.467 146.123 441.178 146.774C440.912 147.426 440.695 148.077 440.526 148.729C440.357 149.38 440.273 150.008 440.273 150.611C440.273 151.069 440.333 151.444 440.454 151.733C440.598 151.999 440.779 152.204 440.997 152.348C441.214 152.493 441.443 152.59 441.684 152.638C441.95 152.686 442.203 152.71 442.444 152.71C443.241 152.71 444.025 152.481 444.797 152.023C445.594 151.54 446.366 150.925 447.114 150.177C447.886 149.429 448.622 148.584 449.322 147.643C450.046 146.678 450.733 145.7 451.385 144.711C452.037 143.722 452.64 142.78 453.195 141.888C453.75 140.971 454.245 140.174 454.679 139.499L456.018 140.512ZM483.456 128.929C483.142 129.556 482.695 130.377 482.116 131.39C481.561 132.404 480.958 133.526 480.306 134.757C479.655 135.963 478.991 137.23 478.316 138.557C477.664 139.885 477.061 141.188 476.506 142.467C475.975 143.722 475.528 144.916 475.166 146.05C474.829 147.16 474.66 148.101 474.66 148.874C474.66 149.646 474.804 150.153 475.094 150.394C475.408 150.611 475.806 150.72 476.289 150.72C476.988 150.72 477.7 150.514 478.424 150.104C479.172 149.694 479.896 149.163 480.596 148.512C481.32 147.86 482.02 147.124 482.695 146.304C483.371 145.483 483.998 144.663 484.578 143.842C485.181 142.998 485.724 142.201 486.207 141.453C486.689 140.681 487.099 140.029 487.437 139.499L488.74 140.512C488.33 141.284 487.847 142.117 487.292 143.01C486.737 143.903 486.122 144.807 485.446 145.724C484.795 146.617 484.083 147.486 483.311 148.331C482.539 149.175 481.718 149.923 480.849 150.575C480.005 151.226 479.112 151.745 478.171 152.131C477.23 152.517 476.264 152.71 475.275 152.71C473.827 152.71 472.765 152.276 472.09 151.407C471.414 150.539 471.076 149.417 471.076 148.041C471.076 147.944 471.076 147.739 471.076 147.426C471.1 147.088 471.137 146.822 471.185 146.629C469.978 148.15 468.82 149.404 467.71 150.394C466.624 151.383 465.562 152.167 464.525 152.747C463.511 153.326 462.522 153.724 461.556 153.941C460.615 154.182 459.71 154.303 458.842 154.303C457.925 154.303 457.056 154.146 456.235 153.833C455.439 153.543 454.739 153.109 454.136 152.529C453.509 151.95 453.026 151.238 452.688 150.394C452.326 149.549 452.145 148.572 452.145 147.462C452.145 146.086 452.459 144.518 453.086 142.756C453.69 140.971 454.775 139.052 456.344 137.001C457.671 135.239 459.047 133.755 460.47 132.549C461.918 131.342 463.33 130.377 464.706 129.653C466.105 128.905 467.432 128.374 468.687 128.06C469.942 127.747 471.064 127.59 472.054 127.59C474.274 127.59 475.951 127.964 477.085 128.712C478.219 129.436 478.907 130.558 479.148 132.078C479.631 131.475 480.137 130.872 480.668 130.268C481.199 129.665 481.742 129.05 482.297 128.422L483.456 128.929ZM472.343 142.684C472.657 142.177 473.043 141.538 473.501 140.765C473.96 139.969 474.442 139.161 474.949 138.34C475.456 137.496 475.951 136.687 476.433 135.915C476.916 135.143 477.338 134.491 477.7 133.96C477.7 133.743 477.664 133.393 477.592 132.911C477.543 132.428 477.387 131.945 477.121 131.463C476.856 130.956 476.433 130.522 475.854 130.16C475.275 129.798 474.467 129.617 473.429 129.617C472.681 129.617 471.836 129.737 470.895 129.979C469.978 130.196 468.989 130.582 467.927 131.137C466.889 131.668 465.816 132.38 464.706 133.273C463.595 134.166 462.485 135.276 461.375 136.603C459.71 138.606 458.419 140.621 457.502 142.648C456.609 144.651 456.163 146.46 456.163 148.077C456.163 149.453 456.477 150.514 457.104 151.263C457.732 152.011 458.624 152.385 459.783 152.385C461.11 152.385 462.353 152.095 463.511 151.516C464.669 150.913 465.755 150.14 466.769 149.199C467.782 148.258 468.748 147.221 469.665 146.086C470.581 144.928 471.474 143.794 472.343 142.684ZM507.888 131.028C508.033 130.642 508.106 130.232 508.106 129.798C508.106 129.026 507.792 128.422 507.165 127.988C506.561 127.529 505.596 127.3 504.269 127.3C503.183 127.3 502.085 127.541 500.975 128.024C499.889 128.483 498.839 129.122 497.826 129.943C496.812 130.763 495.859 131.74 494.966 132.875C494.097 134.009 493.337 135.239 492.686 136.567C492.058 137.894 491.552 139.305 491.165 140.802C490.804 142.274 490.623 143.758 490.623 145.254C490.623 146.46 490.755 147.486 491.021 148.331C491.286 149.175 491.66 149.863 492.143 150.394C492.625 150.925 493.205 151.311 493.88 151.552C494.556 151.769 495.316 151.878 496.161 151.878C497.826 151.878 499.443 151.504 501.011 150.756C502.58 150.008 504.064 149.042 505.463 147.86C506.887 146.653 508.19 145.314 509.373 143.842C510.579 142.37 511.641 140.922 512.558 139.499L513.897 140.512C512.594 142.708 511.207 144.639 509.735 146.304C508.262 147.944 506.754 149.32 505.21 150.43C503.665 151.54 502.097 152.373 500.504 152.928C498.912 153.483 497.355 153.76 495.835 153.76C494.628 153.76 493.47 153.579 492.36 153.217C491.274 152.855 490.309 152.312 489.464 151.588C488.644 150.84 487.98 149.887 487.473 148.729C486.991 147.57 486.749 146.195 486.749 144.602C486.749 142.72 487.015 140.946 487.546 139.281C488.101 137.592 488.825 136.036 489.718 134.612C490.635 133.188 491.684 131.909 492.867 130.775C494.049 129.617 495.28 128.639 496.559 127.843C497.862 127.047 499.165 126.444 500.468 126.033C501.795 125.599 503.038 125.382 504.196 125.382C505.379 125.382 506.344 125.551 507.092 125.888C507.84 126.202 508.431 126.588 508.866 127.047C509.3 127.505 509.59 127.988 509.735 128.495C509.903 129.001 509.988 129.436 509.988 129.798C509.988 130.377 509.903 130.992 509.735 131.644C509.566 132.295 509.324 132.899 509.011 133.454C508.721 133.985 508.347 134.431 507.888 134.793C507.454 135.155 506.971 135.336 506.441 135.336C505.91 135.336 505.451 135.167 505.065 134.829C504.679 134.467 504.486 134.021 504.486 133.49C504.486 133.466 504.498 133.321 504.522 133.055C504.57 132.79 504.691 132.513 504.884 132.223C505.077 131.909 505.367 131.632 505.753 131.39C506.163 131.149 506.73 131.028 507.454 131.028H507.888ZM528.629 144.928C527.688 145.966 526.735 146.931 525.77 147.824C524.804 148.693 523.851 149.453 522.91 150.104C521.969 150.756 521.04 151.275 520.123 151.661C519.23 152.023 518.361 152.204 517.517 152.204C516.576 152.204 515.719 152.035 514.947 151.697C514.199 151.335 513.547 150.828 512.992 150.177C512.461 149.525 512.051 148.753 511.762 147.86C511.472 146.967 511.327 145.978 511.327 144.892C511.327 143.444 511.629 141.936 512.232 140.367C512.835 138.799 513.608 137.278 514.549 135.806C515.514 134.31 516.576 132.899 517.734 131.571C518.916 130.244 520.063 129.098 521.173 128.133L522.729 129.219C522.44 129.629 522.041 130.196 521.535 130.92C521.028 131.644 520.485 132.488 519.906 133.454C519.327 134.395 518.735 135.42 518.132 136.53C517.553 137.64 517.022 138.775 516.54 139.933C516.057 141.091 515.659 142.25 515.345 143.408C515.055 144.566 514.911 145.652 514.911 146.666C514.911 147.148 514.947 147.619 515.019 148.077C515.116 148.512 515.261 148.898 515.454 149.236C515.671 149.573 515.948 149.839 516.286 150.032C516.624 150.225 517.058 150.321 517.589 150.321C518.434 150.321 519.351 150.068 520.34 149.561C521.354 149.03 522.391 148.319 523.453 147.426C524.539 146.509 525.637 145.447 526.747 144.24C527.881 143.034 528.991 141.743 530.077 140.367C531.163 138.992 532.213 137.58 533.226 136.132C534.24 134.66 535.181 133.212 536.05 131.789C536.822 130.51 537.594 129.231 538.366 127.952C539.138 126.649 539.911 125.382 540.683 124.151L542.384 125.02C542.36 125.068 542.131 125.527 541.696 126.395C541.286 127.24 540.731 128.398 540.031 129.87C539.332 131.318 538.511 133.007 537.57 134.938C536.653 136.844 535.676 138.883 534.638 141.055C533.6 143.203 532.539 145.411 531.453 147.679C530.391 149.947 529.353 152.155 528.34 154.303C531.742 152.421 534.819 150.189 537.57 147.607C540.345 145.025 542.722 142.322 544.701 139.499L546.04 140.512C543.941 143.722 541.334 146.69 538.221 149.417C535.109 152.119 531.356 154.713 526.964 157.199C524.961 161.494 522.995 165.416 521.064 168.963C519.158 172.51 517.239 175.551 515.309 178.084C513.402 180.618 511.496 182.573 509.59 183.948C507.659 185.348 505.705 186.048 503.726 186.048C502.423 186.048 501.337 185.613 500.468 184.745C499.599 183.876 499.165 182.633 499.165 181.016C499.165 179.665 499.467 178.278 500.07 176.854C500.673 175.43 501.506 173.994 502.568 172.546C503.629 171.123 504.896 169.699 506.368 168.275C507.816 166.875 509.409 165.524 511.146 164.221C512.859 162.918 514.657 161.675 516.54 160.493C518.446 159.31 520.376 158.224 522.331 157.235C522.838 156.173 523.381 155.051 523.96 153.869C524.539 152.71 525.106 151.588 525.661 150.502C526.216 149.392 526.747 148.355 527.254 147.389C527.785 146.4 528.243 145.58 528.629 144.928ZM520.666 160.746C517.891 162.459 515.309 164.281 512.92 166.212C510.555 168.167 508.504 170.085 506.766 171.967C505.005 173.874 503.629 175.659 502.64 177.324C501.651 178.989 501.156 180.401 501.156 181.559C501.156 182.332 501.385 182.947 501.844 183.405C502.278 183.864 502.845 184.093 503.545 184.093C504.486 184.093 505.463 183.767 506.477 183.116C507.466 182.488 508.468 181.62 509.481 180.51C510.471 179.4 511.46 178.084 512.449 176.564C513.439 175.068 514.404 173.451 515.345 171.714C516.31 170 517.239 168.203 518.132 166.32C519.025 164.462 519.87 162.604 520.666 160.746ZM397.234 266.488C397.162 266.536 396.836 266.705 396.257 266.995C395.678 267.284 394.918 267.598 393.977 267.936C393.036 268.274 391.962 268.575 390.755 268.841C389.549 269.13 388.294 269.275 386.991 269.275C384.867 269.275 382.961 268.901 381.272 268.153C379.582 267.405 378.147 266.343 376.964 264.968C375.806 263.616 374.913 261.975 374.286 260.045C373.658 258.139 373.344 256.015 373.344 253.674C373.344 251.43 373.622 248.969 374.177 246.29C374.732 243.587 375.456 240.812 376.349 237.965C377.242 235.117 378.243 232.27 379.353 229.422C380.487 226.575 381.621 223.872 382.756 221.314C383.914 218.732 385.012 216.379 386.05 214.256C387.087 212.108 387.98 210.322 388.728 208.899C387.377 210.443 385.832 212.229 384.095 214.256C382.357 216.259 380.499 218.467 378.521 220.88C376.566 223.269 374.527 225.827 372.403 228.554C370.28 231.256 368.132 234.08 365.96 237.024C363.813 239.944 361.677 242.948 359.553 246.037C357.43 249.101 355.403 252.19 353.472 255.303L351.735 254.724C352.097 250.791 352.688 246.893 353.509 243.032C354.353 239.147 355.294 235.419 356.332 231.847C357.394 228.252 358.504 224.886 359.662 221.749C360.844 218.587 361.967 215.764 363.028 213.278C361.412 215.499 359.795 217.912 358.178 220.518C356.585 223.1 354.968 225.766 353.328 228.517C351.687 231.244 349.997 233.995 348.26 236.77C346.523 239.521 344.713 242.176 342.83 244.734C340.948 247.267 338.957 249.644 336.858 251.864C334.783 254.06 332.563 255.967 330.198 257.583C327.857 259.224 325.347 260.515 322.669 261.457C320.014 262.398 317.167 262.868 314.126 262.868C311.786 262.868 309.662 262.518 307.756 261.819C305.849 261.119 304.208 260.153 302.833 258.923C301.481 257.716 300.444 256.292 299.72 254.652C298.972 253.011 298.598 251.237 298.598 249.331C298.598 247.472 298.899 245.795 299.503 244.299C300.082 242.779 300.866 241.44 301.855 240.281C302.845 239.099 303.991 238.085 305.294 237.241C306.621 236.372 308.009 235.66 309.457 235.105C310.905 234.55 312.365 234.14 313.837 233.875C315.333 233.609 316.757 233.476 318.108 233.476C320.907 233.476 323.586 233.814 326.144 234.49C328.702 235.141 331.163 236.312 333.528 238.001L332.261 239.413C332.237 239.389 331.923 239.171 331.32 238.761C330.717 238.327 329.848 237.856 328.714 237.349C327.579 236.843 326.168 236.384 324.479 235.974C322.814 235.564 320.907 235.359 318.759 235.359C316.684 235.359 314.669 235.636 312.715 236.191C310.784 236.746 309.071 237.591 307.575 238.725C306.103 239.835 304.92 241.247 304.027 242.96C303.134 244.649 302.688 246.64 302.688 248.932C302.688 250.573 303.002 252.094 303.629 253.493C304.281 254.893 305.174 256.099 306.308 257.113C307.442 258.151 308.805 258.959 310.398 259.538C311.991 260.117 313.752 260.407 315.683 260.407C318.578 260.407 321.354 259.792 324.008 258.561C326.662 257.33 329.22 255.665 331.682 253.566C334.143 251.466 336.508 249.017 338.776 246.218C341.069 243.418 343.265 240.462 345.364 237.349C347.488 234.236 349.539 231.039 351.518 227.757C353.496 224.475 355.415 221.314 357.273 218.274C359.131 215.209 360.941 212.349 362.703 209.695C364.464 207.016 366.19 204.712 367.879 202.781L369.508 203.759C368.446 206.992 367.529 209.84 366.757 212.301C365.984 214.738 365.309 216.886 364.73 218.744C364.175 220.602 363.692 222.207 363.282 223.558C362.896 224.91 362.558 226.116 362.268 227.178C361.979 228.24 361.713 229.205 361.472 230.074C361.255 230.918 361.025 231.763 360.784 232.608C360.567 233.452 360.314 234.345 360.024 235.286C359.734 236.227 359.384 237.325 358.974 238.58C358.564 239.811 358.081 241.247 357.526 242.888C356.971 244.504 356.296 246.423 355.499 248.643C357.526 245.578 359.602 242.562 361.725 239.594C363.873 236.625 366.009 233.754 368.132 230.979C370.256 228.204 372.331 225.549 374.358 223.015C376.409 220.482 378.34 218.129 380.149 215.957C381.983 213.785 383.661 211.818 385.181 210.057C386.725 208.271 388.065 206.751 389.199 205.496C390.333 204.241 391.214 203.264 391.841 202.564C392.493 201.864 392.83 201.502 392.855 201.478L394.375 202.6C392.951 206.124 391.539 209.659 390.14 213.206C388.74 216.729 387.389 220.168 386.086 223.522C384.807 226.876 383.612 230.11 382.502 233.223C381.392 236.336 380.427 239.256 379.607 241.983C378.786 244.685 378.135 247.159 377.652 249.403C377.193 251.623 376.964 253.529 376.964 255.122C376.964 257.004 377.181 258.706 377.616 260.226C378.074 261.746 378.726 263.037 379.57 264.099C380.415 265.161 381.453 265.969 382.683 266.524C383.938 267.103 385.35 267.393 386.918 267.393C388.101 267.393 389.247 267.26 390.357 266.995C391.491 266.729 392.493 266.44 393.361 266.126C394.23 265.812 394.93 265.523 395.461 265.257C395.992 264.992 396.269 264.859 396.293 264.859L397.234 266.488ZM419.894 229.929C419.58 230.556 419.134 231.377 418.554 232.39C417.999 233.404 417.396 234.526 416.745 235.757C416.093 236.963 415.429 238.23 414.754 239.557C414.102 240.885 413.499 242.188 412.944 243.467C412.413 244.722 411.967 245.916 411.605 247.05C411.267 248.16 411.098 249.101 411.098 249.874C411.098 250.646 411.243 251.153 411.532 251.394C411.846 251.611 412.244 251.72 412.727 251.72C413.427 251.72 414.138 251.514 414.862 251.104C415.61 250.694 416.334 250.163 417.034 249.512C417.758 248.86 418.458 248.124 419.134 247.304C419.809 246.483 420.437 245.663 421.016 244.842C421.619 243.998 422.162 243.201 422.645 242.453C423.127 241.681 423.538 241.029 423.875 240.499L425.178 241.512C424.768 242.284 424.286 243.117 423.731 244.01C423.176 244.903 422.56 245.807 421.885 246.724C421.233 247.617 420.521 248.486 419.749 249.331C418.977 250.175 418.156 250.923 417.288 251.575C416.443 252.226 415.55 252.745 414.609 253.131C413.668 253.517 412.703 253.71 411.713 253.71C410.265 253.71 409.204 253.276 408.528 252.407C407.852 251.539 407.514 250.417 407.514 249.041C407.514 248.944 407.514 248.739 407.514 248.426C407.538 248.088 407.575 247.822 407.623 247.629C406.416 249.15 405.258 250.404 404.148 251.394C403.062 252.383 402 253.167 400.963 253.747C399.949 254.326 398.96 254.724 397.995 254.941C397.053 255.182 396.149 255.303 395.28 255.303C394.363 255.303 393.494 255.146 392.674 254.833C391.877 254.543 391.177 254.109 390.574 253.529C389.947 252.95 389.464 252.238 389.126 251.394C388.764 250.549 388.583 249.572 388.583 248.462C388.583 247.086 388.897 245.518 389.524 243.756C390.128 241.971 391.214 240.052 392.782 238.001C394.109 236.239 395.485 234.755 396.909 233.549C398.357 232.342 399.768 231.377 401.144 230.653C402.543 229.905 403.871 229.374 405.125 229.06C406.38 228.747 407.502 228.59 408.492 228.59C410.712 228.59 412.389 228.964 413.523 229.712C414.657 230.436 415.345 231.558 415.586 233.078C416.069 232.475 416.576 231.872 417.107 231.268C417.637 230.665 418.18 230.05 418.735 229.422L419.894 229.929ZM408.781 243.684C409.095 243.177 409.481 242.538 409.94 241.765C410.398 240.969 410.881 240.161 411.387 239.34C411.894 238.496 412.389 237.687 412.872 236.915C413.354 236.143 413.776 235.491 414.138 234.96C414.138 234.743 414.102 234.393 414.03 233.911C413.982 233.428 413.825 232.945 413.559 232.463C413.294 231.956 412.872 231.522 412.292 231.16C411.713 230.798 410.905 230.617 409.867 230.617C409.119 230.617 408.274 230.737 407.333 230.979C406.416 231.196 405.427 231.582 404.365 232.137C403.328 232.668 402.254 233.38 401.144 234.273C400.034 235.166 398.924 236.276 397.814 237.603C396.149 239.606 394.857 241.621 393.941 243.648C393.048 245.651 392.601 247.46 392.601 249.077C392.601 250.453 392.915 251.514 393.542 252.263C394.17 253.011 395.063 253.385 396.221 253.385C397.548 253.385 398.791 253.095 399.949 252.516C401.107 251.913 402.193 251.14 403.207 250.199C404.22 249.258 405.186 248.221 406.103 247.086C407.02 245.928 407.913 244.794 408.781 243.684ZM435.531 225.585C435.41 225.803 435.253 226.044 435.06 226.309C434.867 226.551 434.674 226.84 434.481 227.178C434.312 227.492 434.155 227.866 434.011 228.3C433.89 228.735 433.83 229.253 433.83 229.857C433.83 230.363 433.95 231.051 434.191 231.92C434.457 232.789 434.734 233.79 435.024 234.924C435.314 236.034 435.579 237.253 435.82 238.58C436.086 239.883 436.219 241.235 436.219 242.634C436.219 244.685 435.941 246.495 435.386 248.064C434.831 249.632 434.095 250.972 433.178 252.082C435.06 251.068 436.906 249.62 438.716 247.738C440.526 245.832 442.348 243.418 444.182 240.499L445.413 241.584C444.375 243.298 443.192 244.999 441.865 246.688C440.562 248.353 439.126 249.861 437.558 251.213C435.989 252.54 434.3 253.614 432.49 254.434C430.68 255.279 428.762 255.701 426.735 255.701C424.925 255.701 423.405 255.267 422.174 254.398C420.919 253.554 420.147 252.275 419.858 250.561L421.161 250.308C421.161 250.453 421.233 250.694 421.378 251.032C421.498 251.346 421.704 251.659 421.993 251.973C422.283 252.287 422.681 252.564 423.188 252.806C423.67 253.047 424.274 253.167 424.997 253.167C425.963 253.167 426.819 252.95 427.567 252.516C428.316 252.057 428.967 251.466 429.522 250.742C430.077 250.018 430.548 249.198 430.934 248.281C431.32 247.34 431.622 246.375 431.839 245.385C432.08 244.396 432.249 243.43 432.345 242.489C432.442 241.548 432.49 240.692 432.49 239.919C432.49 239.147 432.454 238.291 432.382 237.349C432.333 236.408 432.273 235.515 432.201 234.671C432.128 233.802 432.056 233.054 431.983 232.427C431.935 231.775 431.911 231.353 431.911 231.16V231.087C431.597 231.425 431.223 231.92 430.789 232.571C430.355 233.223 429.884 233.935 429.377 234.707C428.895 235.479 428.4 236.263 427.893 237.06C427.411 237.856 426.964 238.58 426.554 239.232C426.168 239.883 425.842 240.426 425.577 240.861C425.335 241.271 425.215 241.488 425.215 241.512L423.912 240.499C423.936 240.474 424.237 239.956 424.816 238.942C425.396 237.929 426.156 236.65 427.097 235.105C428.062 233.537 429.148 231.811 430.355 229.929C431.561 228.023 432.804 226.177 434.083 224.391L435.531 225.585ZM451.53 224.138C451.771 223.727 452.193 223.015 452.797 222.002C453.424 220.988 454.148 219.866 454.969 218.636C455.813 217.405 456.718 216.174 457.683 214.944C458.673 213.689 459.638 212.627 460.579 211.758L462.208 212.735C461.17 214.449 460.109 216.271 459.023 218.201C457.937 220.108 456.863 222.086 455.801 224.138H467.601L466.877 226.02H454.824C453.738 228.192 452.712 230.351 451.747 232.499C450.806 234.647 449.973 236.698 449.249 238.652C448.525 240.607 447.958 242.441 447.548 244.154C447.138 245.844 446.933 247.316 446.933 248.57C446.933 250.139 447.295 251.273 448.019 251.973C448.743 252.649 449.636 252.986 450.697 252.986C451.638 252.986 452.604 252.709 453.593 252.154C454.582 251.575 455.548 250.851 456.489 249.982C457.454 249.113 458.359 248.16 459.204 247.123C460.072 246.085 460.832 245.108 461.484 244.191C462.16 243.274 462.715 242.477 463.149 241.802C463.583 241.102 463.849 240.667 463.945 240.499L465.285 241.512C464.44 242.912 463.487 244.396 462.425 245.964C461.363 247.533 460.181 248.993 458.878 250.344C457.599 251.671 456.199 252.781 454.679 253.674C453.159 254.543 451.518 254.977 449.756 254.977C448.67 254.977 447.717 254.784 446.897 254.398C446.1 254.012 445.425 253.481 444.87 252.806C444.315 252.106 443.904 251.285 443.639 250.344C443.349 249.403 443.205 248.377 443.205 247.267C443.205 246.543 443.325 245.518 443.567 244.191C443.784 242.863 444.17 241.295 444.725 239.485C445.28 237.651 446.016 235.6 446.933 233.332C447.874 231.063 449.056 228.626 450.48 226.02H444.471L445.195 224.138H451.53ZM466.696 245.747C466.648 246.037 466.612 246.326 466.588 246.616C466.564 246.905 466.552 247.195 466.552 247.485C466.552 248.353 466.672 249.186 466.914 249.982C467.179 250.754 467.553 251.442 468.036 252.045C468.542 252.625 469.158 253.083 469.882 253.421C470.63 253.759 471.474 253.928 472.415 253.928C475.577 253.928 478.629 252.854 481.573 250.706C484.517 248.558 487.449 245.156 490.369 240.499L491.6 241.584C490.007 244.239 488.39 246.483 486.749 248.317C485.109 250.127 483.468 251.599 481.827 252.733C480.21 253.867 478.617 254.688 477.049 255.194C475.48 255.701 473.984 255.955 472.56 255.955C471.523 255.955 470.425 255.81 469.266 255.52C468.108 255.231 467.034 254.748 466.045 254.072C465.08 253.397 464.283 252.492 463.656 251.358C463.004 250.223 462.678 248.812 462.678 247.123C462.678 245.313 462.992 243.575 463.62 241.91C464.223 240.221 465.019 238.652 466.009 237.205C466.998 235.757 468.132 234.442 469.411 233.259C470.69 232.053 471.981 231.027 473.284 230.182C474.611 229.338 475.902 228.686 477.157 228.228C478.412 227.745 479.522 227.504 480.487 227.504C481.115 227.504 481.754 227.6 482.406 227.793C483.057 227.986 483.637 228.288 484.143 228.698C484.674 229.109 485.096 229.652 485.41 230.327C485.748 231.003 485.917 231.811 485.917 232.752C485.917 234.031 485.615 235.238 485.012 236.372C484.433 237.482 483.649 238.52 482.659 239.485C481.67 240.426 480.524 241.283 479.22 242.055C477.917 242.803 476.554 243.443 475.13 243.973C473.706 244.504 472.271 244.927 470.823 245.24C469.375 245.554 467.999 245.723 466.696 245.747ZM466.986 244.191C468.603 244.022 470.123 243.684 471.547 243.177C472.97 242.67 474.274 242.055 475.456 241.331C476.638 240.583 477.688 239.775 478.605 238.906C479.546 238.037 480.331 237.156 480.958 236.263C481.585 235.371 482.068 234.514 482.406 233.694C482.744 232.873 482.913 232.137 482.913 231.486C482.913 230.834 482.732 230.315 482.37 229.929C482.032 229.543 481.622 229.35 481.139 229.35C480.077 229.35 478.883 229.736 477.555 230.508C476.228 231.256 474.901 232.306 473.574 233.657C472.247 234.985 470.992 236.553 469.809 238.363C468.651 240.173 467.71 242.115 466.986 244.191ZM513.209 241.512C512.847 242.043 512.413 242.767 511.906 243.684C511.424 244.577 510.857 245.554 510.205 246.616C509.554 247.653 508.83 248.715 508.033 249.801C507.261 250.887 506.404 251.864 505.463 252.733C504.546 253.602 503.545 254.314 502.459 254.869C501.373 255.424 500.215 255.701 498.984 255.701C498.308 255.701 497.669 255.593 497.066 255.375C496.462 255.182 495.931 254.869 495.473 254.434C495.014 254 494.652 253.469 494.387 252.842C494.122 252.19 493.989 251.43 493.989 250.561C493.989 249.379 494.218 248.148 494.677 246.869C495.159 245.566 495.714 244.311 496.342 243.105C496.969 241.898 497.596 240.8 498.224 239.811C498.851 238.797 499.31 237.989 499.599 237.386C499.889 236.782 500.034 236.263 500.034 235.829C500.034 235.515 499.925 235.238 499.708 234.997C499.515 234.755 499.262 234.526 498.948 234.309C498.658 234.068 498.345 233.826 498.007 233.585C497.693 233.319 497.428 233.006 497.21 232.644C496.607 233.609 495.992 234.586 495.364 235.576C494.809 236.42 494.206 237.374 493.554 238.435C492.903 239.473 492.276 240.499 491.672 241.512L490.369 240.499L498.115 228.373L499.165 228.916C499.117 229.06 499.032 229.29 498.912 229.603C498.815 229.917 498.767 230.255 498.767 230.617C498.767 230.882 498.803 231.148 498.875 231.413C498.972 231.654 499.153 231.884 499.418 232.101C500.384 232.97 501.144 233.645 501.699 234.128C502.254 234.586 502.652 234.96 502.893 235.25C503.159 235.515 503.316 235.745 503.364 235.938C503.436 236.107 503.472 236.336 503.472 236.625C503.472 236.915 503.424 237.265 503.328 237.675C503.231 238.085 503.062 238.58 502.821 239.159C502.604 239.738 502.29 240.426 501.88 241.222C501.494 241.995 500.999 242.9 500.396 243.937C500.034 244.565 499.672 245.204 499.31 245.856C498.972 246.483 498.658 247.123 498.369 247.774C498.103 248.426 497.886 249.077 497.717 249.729C497.548 250.38 497.464 251.008 497.464 251.611C497.464 252.069 497.524 252.444 497.645 252.733C497.79 252.999 497.97 253.204 498.188 253.348C498.405 253.493 498.634 253.59 498.875 253.638C499.141 253.686 499.394 253.71 499.636 253.71C500.432 253.71 501.216 253.481 501.988 253.023C502.785 252.54 503.557 251.925 504.305 251.177C505.077 250.429 505.813 249.584 506.513 248.643C507.237 247.678 507.925 246.7 508.576 245.711C509.228 244.722 509.831 243.78 510.386 242.888C510.941 241.971 511.436 241.174 511.87 240.499L513.209 241.512Z" fill="black"/>
</svg>
