<svg width="453" height="453" viewBox="0 0 453 453" fill="none" xmlns="http://www.w3.org/2000/svg">
<g id="Backtoword">
<rect id="Rectangle 1" x="25" y="25" width="403" height="403" rx="110" stroke="black" stroke-width="50"/>
<path id="W" d="M142 125.4C143.467 124.733 145.733 124 148.8 123.2C152 122.267 155.2 121.8 158.4 121.8C164 121.8 168.667 122.667 172.4 124.4C176.133 126 178.4 128.4 179.2 131.6C180.667 137.067 182 142.2 183.2 147C184.533 151.667 185.8 156.2 187 160.6C188.2 164.867 189.333 169.133 190.4 173.4C191.6 177.667 192.733 182.133 193.8 186.8H194.8C196 178.667 197.067 170.933 198 163.6C198.933 156.133 199.8 148.867 200.6 141.8C201.4 134.6 202.2 127.533 203 120.6C203.8 113.533 204.6 106.4 205.4 99.2C210.333 96.4 215.6 95 221.2 95C226.133 95 230.4 96.0667 234 98.2C237.6 100.333 239.4 103.933 239.4 109C239.4 111.933 239.067 116.133 238.4 121.6C237.867 126.933 237.067 132.933 236 139.6C235.067 146.267 233.933 153.267 232.6 160.6C231.267 167.933 229.867 174.933 228.4 181.6C226.933 188.267 225.4 194.333 223.8 199.8C222.333 205.133 220.933 209.267 219.6 212.2C217.6 214.067 214.333 215.6 209.8 216.8C205.267 218 200.6 218.6 195.8 218.6C189.533 218.6 184.2 217.8 179.8 216.2C175.533 214.467 172.933 212.067 172 209C170.267 203.667 168.4 197.333 166.4 190C164.4 182.667 162.267 174.6 160 165.8C158.133 174.467 156.2 182.933 154.2 191.2C152.2 199.467 150.4 206.467 148.8 212.2C146.8 214.067 143.8 215.6 139.8 216.8C135.8 218 131.4 218.6 126.6 218.6C120.6 218.6 115.133 217.8 110.2 216.2C105.4 214.467 102.267 212.067 100.8 209C99.6 206.6 98.2667 203.067 96.8 198.4C95.4667 193.6 94.0667 188.2 92.6 182.2C91.1333 176.067 89.6 169.467 88 162.4C86.5333 155.333 85.1333 148.267 83.8 141.2C82.6 134.133 81.4667 127.267 80.4 120.6C79.3333 113.8 78.5333 107.6 78 102C79.8667 100.267 82.4667 98.6667 85.8 97.2C89.1333 95.7333 92.7333 95 96.6 95C101.667 95 105.8 96.1333 109 98.4C112.333 100.533 114.4 104.2 115.2 109.4C117.333 123 119.067 134.333 120.4 143.4C121.867 152.467 123 159.933 123.8 165.8C124.733 171.533 125.4 176 125.8 179.2C126.2 182.4 126.6 184.933 127 186.8H128C129.2 181.467 130.333 176.533 131.4 172C132.467 167.467 133.533 162.933 134.6 158.4C135.8 153.733 137 148.8 138.2 143.6C139.4 138.267 140.667 132.2 142 125.4Z" fill="black"/>
<g id="Group 1">
<path id="Polygon 1" d="M68.9998 301.5L198.75 236.115V366.885L68.9998 301.5Z" fill="black"/>
<path id="Polygon 2" d="M211 301.5L340.75 236.115V366.885L211 301.5Z" fill="black"/>
</g>
</g>
</svg>
