<svg width="486" height="328" viewBox="0 0 486 328" fill="none" xmlns="http://www.w3.org/2000/svg">
<g id="Group 1">
<path id="Vector 1" d="M419 54H230C227.239 54 225 56.2386 225 59V100C225 102.761 227.239 105 230 105H360C362.761 105 365 107.239 365 110V192C365 194.761 362.761 197 360 197H161C158.239 197 156 194.761 156 192V170.329C156 166.555 151.98 164.142 148.649 165.916L56.6879 214.905C53.281 216.719 53.1284 221.546 56.4138 223.573L148.375 280.297C151.706 282.352 156 279.955 156 276.041V251C156 248.239 158.239 246 161 246H419C421.761 246 424 243.761 424 241V59C424 56.2386 421.761 54 419 54Z" fill="white"/>
<rect id="Rectangle 1" x="9" y="9.00002" width="468" height="310" rx="59" stroke="white" stroke-width="18" stroke-linejoin="round"/>
</g>
</svg>
