<svg width="514" height="654" viewBox="0 0 514 654" fill="none" xmlns="http://www.w3.org/2000/svg">
<path d="M385 627H129C72.667 627 27 581.333 27 525V269.896C27 241.874 38.528 215.087 58.8774 195.823L183.384 77.9561C222.099 41.3061 282.507 40.6512 322.007 76.4535L453.5 195.637C474.833 214.972 487 242.422 487 271.212V525C487 581.333 441.333 627 385 627Z" stroke="black" stroke-width="53"/>
<path d="M363 18C363 8.05888 371.059 0 381 0H426C435.941 0 444 8.05887 444 18V156H383C371.954 156 363 147.046 363 136V18Z" fill="black"/>
</svg>
