<svg width="371" height="371" viewBox="0 0 371 371" fill="none" xmlns="http://www.w3.org/2000/svg">
<circle cx="185.5" cy="185.5" r="164" stroke="black" stroke-width="43"/>
<path d="M170.431 224.061V223.02C170.547 211.98 171.703 203.195 173.899 196.663C176.095 190.132 179.217 184.843 183.263 180.797C187.309 176.751 192.164 173.023 197.828 169.613C201.238 167.532 204.302 165.075 207.019 162.243C209.735 159.353 211.874 156.03 213.434 152.273C215.053 148.516 215.862 144.354 215.862 139.788C215.862 134.123 214.533 129.21 211.874 125.049C209.215 120.887 205.66 117.679 201.21 115.425C196.759 113.171 191.817 112.044 186.384 112.044C181.644 112.044 177.078 113.026 172.685 114.992C168.292 116.957 164.622 120.049 161.674 124.269C158.726 128.488 157.021 134.008 156.559 140.828H134.71C135.173 131.002 137.716 122.592 142.34 115.598C147.022 108.605 153.178 103.258 160.807 99.5589C168.495 95.8597 177.02 94.0101 186.384 94.0101C196.557 94.0101 205.4 96.0331 212.914 100.079C220.486 104.125 226.324 109.674 230.428 116.726C234.589 123.777 236.67 131.811 236.67 140.828C236.67 147.186 235.687 152.937 233.722 158.082C231.815 163.226 229.04 167.821 225.399 171.867C221.815 175.913 217.48 179.497 212.394 182.618C207.308 185.797 203.233 189.149 200.169 192.675C197.106 196.143 194.88 200.276 193.493 205.073C192.106 209.871 191.355 215.853 191.239 223.02V224.061H170.431ZM181.529 275.387C177.251 275.387 173.581 273.855 170.518 270.792C167.454 267.729 165.923 264.058 165.923 259.781C165.923 255.504 167.454 251.834 170.518 248.77C173.581 245.707 177.251 244.175 181.529 244.175C185.806 244.175 189.476 245.707 192.54 248.77C195.603 251.834 197.135 255.504 197.135 259.781C197.135 262.613 196.412 265.214 194.967 267.584C193.58 269.954 191.701 271.861 189.332 273.306C187.02 274.694 184.419 275.387 181.529 275.387Z" fill="black"/>
</svg>
