<svg width="369" height="361" viewBox="0 0 369 361" fill="none" xmlns="http://www.w3.org/2000/svg">
<rect width="369" height="51" rx="21" fill="black"/>
<rect y="77" width="369" height="51" rx="21" fill="black"/>
<rect y="154" width="369" height="51" rx="21" fill="black"/>
<path d="M265 266.4C266.467 265.733 268.733 265 271.8 264.2C275 263.267 278.2 262.8 281.4 262.8C287 262.8 291.667 263.667 295.4 265.4C299.133 267 301.4 269.4 302.2 272.6C303.667 278.067 305 283.2 306.2 288C307.533 292.667 308.8 297.2 310 301.6C311.2 305.867 312.333 310.133 313.4 314.4C314.6 318.667 315.733 323.133 316.8 327.8H317.8C319 319.667 320.067 311.933 321 304.6C321.933 297.133 322.8 289.867 323.6 282.8C324.4 275.6 325.2 268.533 326 261.6C326.8 254.533 327.6 247.4 328.4 240.2C333.333 237.4 338.6 236 344.2 236C349.133 236 353.4 237.067 357 239.2C360.6 241.333 362.4 244.933 362.4 250C362.4 252.933 362.067 257.133 361.4 262.6C360.867 267.933 360.067 273.933 359 280.6C358.067 287.267 356.933 294.267 355.6 301.6C354.267 308.933 352.867 315.933 351.4 322.6C349.933 329.267 348.4 335.333 346.8 340.8C345.333 346.133 343.933 350.267 342.6 353.2C340.6 355.067 337.333 356.6 332.8 357.8C328.267 359 323.6 359.6 318.8 359.6C312.533 359.6 307.2 358.8 302.8 357.2C298.533 355.467 295.933 353.067 295 350C293.267 344.667 291.4 338.333 289.4 331C287.4 323.667 285.267 315.6 283 306.8C281.133 315.467 279.2 323.933 277.2 332.2C275.2 340.467 273.4 347.467 271.8 353.2C269.8 355.067 266.8 356.6 262.8 357.8C258.8 359 254.4 359.6 249.6 359.6C243.6 359.6 238.133 358.8 233.2 357.2C228.4 355.467 225.267 353.067 223.8 350C222.6 347.6 221.267 344.067 219.8 339.4C218.467 334.6 217.067 329.2 215.6 323.2C214.133 317.067 212.6 310.467 211 303.4C209.533 296.333 208.133 289.267 206.8 282.2C205.6 275.133 204.467 268.267 203.4 261.6C202.333 254.8 201.533 248.6 201 243C202.867 241.267 205.467 239.667 208.8 238.2C212.133 236.733 215.733 236 219.6 236C224.667 236 228.8 237.133 232 239.4C235.333 241.533 237.4 245.2 238.2 250.4C240.333 264 242.067 275.333 243.4 284.4C244.867 293.467 246 300.933 246.8 306.8C247.733 312.533 248.4 317 248.8 320.2C249.2 323.4 249.6 325.933 250 327.8H251C252.2 322.467 253.333 317.533 254.4 313C255.467 308.467 256.533 303.933 257.6 299.4C258.8 294.733 260 289.8 261.2 284.6C262.4 279.267 263.667 273.2 265 266.4Z" fill="black"/>
</svg>
