<svg width="468" height="401" viewBox="0 0 468 401" fill="none" xmlns="http://www.w3.org/2000/svg">
<path d="M401 200.5C401 164.204 391.147 128.588 372.493 97.4528C353.838 66.3172 327.082 40.8294 295.078 23.7082C263.073 6.58697 227.021 -1.52543 190.768 0.236326C154.515 1.99809 119.419 13.5679 89.226 33.7117C59.0326 53.8554 34.8735 81.8175 19.3259 114.615C3.77833 147.413 -2.57462 183.816 0.944747 219.941C4.46411 256.066 17.7238 290.558 39.3093 319.738C60.8949 348.919 89.9967 371.692 123.51 385.629L144.768 334.512C120.508 324.423 99.4418 307.938 83.8163 286.815C68.1908 265.692 58.5924 240.724 56.0447 214.573C53.4971 188.423 58.0959 162.071 69.3506 138.329C80.6053 114.587 98.0937 94.346 119.95 79.7643C141.807 65.1825 167.212 56.8072 193.455 55.5319C219.699 54.2566 245.796 60.1291 268.963 72.5229C292.131 84.9167 311.499 103.367 325.003 125.906C338.507 148.444 345.639 174.226 345.639 200.5H401Z" fill="black"/>
<path d="M287 159L369.336 226L447 159" stroke="black" stroke-width="41" stroke-linecap="round" stroke-linejoin="round"/>
</svg>
