<svg width="59" height="51" viewBox="0 0 59 51" fill="none" xmlns="http://www.w3.org/2000/svg">
<path d="M50.3651 25.5856C50.3651 21.0599 49.1396 16.619 46.8192 12.7368C44.4988 8.85455 41.1706 5.67652 37.1897 3.5417C33.2088 1.40689 28.7244 0.395368 24.2149 0.615038C19.7055 0.834709 15.3401 2.27733 11.5844 4.78902C7.82874 7.30071 4.82366 10.7873 2.88974 14.8767C0.955816 18.9662 0.16559 23.5052 0.603354 28.0096C1.04112 32.514 2.69045 36.8148 5.37542 40.4532C8.06039 44.0916 11.6803 46.9312 15.8489 48.669L18.4932 42.2954C15.4755 41.0374 12.8551 38.9819 10.9115 36.3481C8.96791 33.7143 7.77398 30.601 7.45709 27.3403C7.1402 24.0797 7.71223 20.7939 9.11217 17.8336C10.5121 14.8733 12.6874 12.3494 15.4061 10.5312C18.1248 8.71306 21.2849 7.66877 24.5492 7.50975C27.8135 7.35073 31.0597 8.08296 33.9414 9.62832C36.8232 11.1737 39.2324 13.4742 40.9121 16.2845C42.5918 19.0948 43.4789 22.3095 43.4789 25.5856H50.3651Z" fill="white"/>
<path d="M36.1851 20.411L46.4266 28.7651L56.087 20.411" stroke="white" stroke-width="5.64162" stroke-linecap="round" stroke-linejoin="round"/>
</svg>
