<svg width="780" height="968" viewBox="0 0 780 968" fill="none" xmlns="http://www.w3.org/2000/svg">
<rect x="243" y="633" width="288" height="84.6102" fill="black"/>
<path d="M572.12 563.788C575.153 504.251 580.919 382.988 579.721 374.233L587.977 378.546C682.128 427.73 739.915 526.37 736.78 632.548L720.092 624.14C676.316 602.083 630.977 583.275 584.442 567.868L572.12 563.788Z" fill="black"/>
<path d="M206.115 561.412C201.702 501.961 193.125 380.864 194.119 372.084L185.966 376.587C92.9804 427.941 37.4962 527.895 43.0926 633.971L59.581 625.178C102.834 602.112 147.725 582.258 193.89 565.776L206.115 561.412Z" fill="black"/>
<path d="M291 879L250 726H524.5L500 848.5L459 756.5L423.5 945.5L391 777L359 967.5L325 756.5L291 879Z" fill="black" stroke="black"/>
<path fill-rule="evenodd" clip-rule="evenodd" d="M551.101 611.242C568.352 593.648 563 553.891 563 465.5C563 286.284 483.978 0 386.5 0C289.022 0 210 286.284 210 465.5C210 550.727 209.322 590.739 228.937 609.266C250.568 629.698 296.88 624 396 624C491.783 624 533.374 629.321 551.101 611.242ZM387.5 353C426.436 353 458 321.436 458 282.5C458 243.564 426.436 212 387.5 212C348.564 212 317 243.564 317 282.5C317 321.436 348.564 353 387.5 353Z" fill="black"/>
</svg>
