<svg width="435" height="479" viewBox="0 0 435 479" fill="none" xmlns="http://www.w3.org/2000/svg">
<circle cx="217.5" cy="217.5" r="203" stroke="black" stroke-width="29"/>
<path d="M181 245.263L183.636 245.054C208.766 243.064 233.496 252.247 251.236 270.156L252.45 271.382" stroke="black" stroke-width="29" stroke-linecap="round"/>
<path d="M146 79.2459L150.559 77.6764C174.859 69.3105 201.572 71.6985 224.003 84.2419L224.895 84.7405" stroke="black" stroke-width="29" stroke-linecap="round"/>
<path d="M270 133.812L274.64 132.504C299.376 125.53 325.911 129.429 347.594 143.225L348.456 143.773" stroke="black" stroke-width="29" stroke-linecap="round"/>
<ellipse cx="185" cy="139.5" rx="20" ry="23.5" fill="black"/>
<ellipse cx="290" cy="163.5" rx="20" ry="23.5" fill="black"/>
<rect x="42" y="335.309" width="262" height="44" rx="22" transform="rotate(-12.1871 42 335.309)" fill="black"/>
<rect x="30.7921" y="380.476" width="205.945" height="44" rx="22" transform="rotate(-12.1871 30.7921 380.476)" fill="black"/>
<rect x="67.1989" y="414.146" width="161.75" height="44" rx="22" transform="rotate(-12.1871 67.1989 414.146)" fill="black"/>
<rect x="96.9686" y="435.516" width="132.912" height="44" rx="22" transform="rotate(-8.87953 96.9686 435.516)" fill="black"/>
<path d="M205 400C205 384.626 199.448 369.613 189.076 356.944C178.704 344.275 164.001 334.545 146.908 329.04C129.814 323.535 111.135 322.512 93.335 326.108C75.5352 329.703 59.4525 337.748 47.2103 349.179C34.9681 360.61 27.1422 374.89 24.7657 390.135C22.3893 405.379 25.5741 420.87 33.8996 434.562C42.2252 448.255 55.3 459.505 71.3978 466.827C87.4955 474.149 105.859 477.199 124.064 475.574L114.5 400H205Z" fill="black"/>
<path d="M158.344 256.434L156.284 244.374C154.846 235.954 149.531 228.701 141.935 224.795C130.957 219.149 117.75 226.387 116.602 238.678L114.203 264.367C112.787 279.527 105.682 293.589 94.3181 303.723L57 337L96.5491 355.166L141.122 310.572C155.301 296.386 161.721 276.205 158.344 256.434Z" fill="black"/>
</svg>
