<svg width="602" height="982" viewBox="0 0 602 982" fill="none" xmlns="http://www.w3.org/2000/svg">
<rect x="111.94" y="247.001" width="116.324" height="69.1521" rx="27" transform="rotate(-48.4549 111.94 247.001)" stroke="white" stroke-width="24" stroke-linejoin="round"/>
<path d="M581.003 473.354L21 474.255" stroke="white" stroke-width="41" stroke-linecap="round" stroke-linejoin="round"/>
<path d="M379.472 43.8325L21 474.068" stroke="white" stroke-width="41" stroke-linecap="round" stroke-linejoin="round"/>
<mask id="path-4-inside-1_40_98" fill="white">
<path d="M79 460H524V932C524 959.614 501.614 982 474 982H129C101.386 982 79 959.614 79 932V460Z"/>
</mask>
<path d="M38 419H565L483 501H120L38 419ZM565 932C565 982.258 524.258 1023 474 1023H129C78.7421 1023 38 982.258 38 932H120C120 936.971 124.029 941 129 941H474C478.971 941 483 936.971 483 932H565ZM129 1023C78.7421 1023 38 982.258 38 932V419L120 501V932C120 936.971 124.029 941 129 941V1023ZM565 419V932C565 982.258 524.258 1023 474 1023V941C478.971 941 483 936.971 483 932V501L565 419Z" fill="white" mask="url(#path-4-inside-1_40_98)"/>
<path fill-rule="evenodd" clip-rule="evenodd" d="M299.354 460L425.093 163.062L560.944 220.589L459.565 460H476.187L575.038 226.557L581.006 212.463L566.912 206.495L431.061 148.968L416.967 143L410.998 157.094L282.733 460H299.354Z" fill="white"/>
<path d="M347.548 483.606L337.202 479.279L357.591 430.537L367.937 434.864L360.336 453.034L409.339 473.532L404.151 485.935L355.148 465.437L347.548 483.606ZM420.297 447.335L360.949 422.51L370.744 399.095C372.618 394.613 375.02 391.123 377.949 388.626C380.867 386.101 384.131 384.617 387.744 384.176C391.345 383.708 395.106 384.294 399.028 385.934C402.969 387.583 406.004 389.851 408.133 392.739C410.242 395.619 411.375 398.987 411.533 402.844C411.698 406.681 410.827 410.88 408.92 415.439L402.362 431.116L392.277 426.898L397.987 413.249C398.989 410.853 399.493 408.726 399.499 406.867C399.505 405.008 399.012 403.418 398.022 402.095C397.039 400.754 395.573 399.675 393.621 398.859C391.651 398.034 389.824 397.735 388.14 397.962C386.464 398.169 384.944 398.929 383.577 400.241C382.2 401.526 381.006 403.376 379.996 405.791L376.456 414.253L425.546 434.788L420.297 447.335ZM406.696 403.987L439.874 400.535L434.08 414.387L401.035 417.52L406.696 403.987ZM446.978 383.553L441.353 396.999L390.575 351.686L397.339 335.516L465.245 339.882L459.621 353.329L407.616 349.042L407.422 349.506L446.978 383.553ZM423.298 374.636L436.584 342.875L446.379 346.972L433.093 378.733L423.298 374.636ZM438.854 284.213C436.42 283.467 434.187 283.702 432.158 284.919C430.128 286.135 428.483 288.251 427.222 291.264C426.365 293.312 425.932 295.162 425.922 296.815C425.892 298.46 426.222 299.869 426.911 301.043C427.609 302.197 428.595 303.041 429.87 303.574C430.916 304.057 431.937 304.223 432.931 304.071C433.933 303.9 434.906 303.502 435.849 302.875C436.773 302.24 437.686 301.441 438.587 300.479C439.47 299.509 440.327 298.437 441.158 297.264L444.664 292.465C446.326 290.119 448.093 288.066 449.964 286.306C451.835 284.547 453.807 283.17 455.88 282.176C457.953 281.181 460.127 280.65 462.404 280.58C464.688 280.492 467.071 280.955 469.552 281.97C473.175 283.508 475.937 285.753 477.835 288.704C479.722 291.627 480.68 295.115 480.71 299.168C480.729 303.193 479.728 307.621 477.708 312.451C475.703 317.242 473.224 321.108 470.268 324.048C467.321 326.969 463.992 328.823 460.281 329.609C456.559 330.367 452.543 329.902 448.233 328.212L453.312 316.07C455.359 316.767 457.259 316.892 459.012 316.445C460.754 315.971 462.319 315.025 463.706 313.608C465.082 312.163 466.223 310.359 467.128 308.195C468.017 306.07 468.479 304.096 468.516 302.273C468.56 300.43 468.214 298.843 467.476 297.513C466.738 296.183 465.655 295.219 464.225 294.621C462.892 294.064 461.606 293.991 460.367 294.403C459.135 294.796 457.886 295.613 456.618 296.853C455.358 298.074 454.015 299.657 452.588 301.603L448.262 307.386C444.952 311.881 441.397 315.035 437.596 316.85C433.795 318.665 429.706 318.646 425.328 316.792C421.727 315.308 418.987 313.039 417.11 309.984C415.241 306.909 414.264 303.357 414.18 299.326C414.095 295.296 414.958 291.117 416.768 286.789C418.611 282.385 420.972 278.855 423.853 276.201C426.742 273.528 429.913 271.835 433.366 271.123C436.819 270.411 440.325 270.766 443.885 272.187L438.854 284.213ZM490.035 280.621L430.686 255.796L435.935 243.248L460.422 253.491L471.077 228.019L446.59 217.776L451.827 205.257L511.175 230.082L505.938 242.601L481.422 232.346L470.767 257.818L495.283 268.073L490.035 280.621Z" fill="white"/>
</svg>
