<svg width="417" height="417" viewBox="0 0 417 417" fill="none" xmlns="http://www.w3.org/2000/svg">
<path d="M52.125 104.25H86.875H364.875" stroke="black" stroke-width="26.0625" stroke-linecap="round" stroke-linejoin="round"/>
<path d="M139 104.25V69.4998C139 60.2835 142.661 51.4447 149.178 44.9279C155.695 38.411 164.534 34.7498 173.75 34.7498H243.25C252.466 34.7498 261.305 38.411 267.822 44.9279C274.339 51.4447 278 60.2835 278 69.4998V104.25M330.125 104.25V347.5C330.125 356.716 326.464 365.555 319.947 372.072C313.43 378.589 304.591 382.25 295.375 382.25H121.625C112.409 382.25 103.57 378.589 97.0528 372.072C90.5359 365.555 86.8748 356.716 86.8748 347.5V104.25H330.125Z" stroke="black" stroke-width="26.0625" stroke-linecap="round" stroke-linejoin="round"/>
</svg>
