<svg width="46" height="51" viewBox="0 0 46 51" fill="none" xmlns="http://www.w3.org/2000/svg">
<path d="M44.3224 27.9575C44.3224 39.5935 34.8895 49.0264 23.2535 49.0264C11.6174 49.0264 2.18458 39.5935 2.18458 27.9575C2.18458 16.3214 11.6174 6.88856 23.2535 6.88856C34.8895 6.88856 44.3224 16.3214 44.3224 27.9575Z" stroke="white" stroke-width="3.07229"/>
<rect x="6.18311" y="26.8638" width="4.90187" height="2.23913" fill="white"/>
<rect x="35.4736" y="26.8638" width="4.90187" height="2.23913" fill="white"/>
<rect x="22.1597" y="45.0793" width="4.90187" height="2.23913" transform="rotate(-90 22.1597 45.0793)" fill="white"/>
<rect x="22.1597" y="15.7891" width="4.90187" height="2.23913" transform="rotate(-90 22.1597 15.7891)" fill="white"/>
<rect width="4.89821" height="2.23649" transform="matrix(0.502065 -0.86483 0.863341 0.504624 13.7617 42.2201)" fill="white"/>
<rect width="4.89821" height="2.23649" transform="matrix(0.502065 -0.86483 0.863341 0.504624 28.4067 16.8541)" fill="white"/>
<rect width="4.89797" height="2.23621" transform="matrix(0.864727 -0.502242 0.505007 0.863118 7.91406 35.5708)" fill="white"/>
<rect width="4.89797" height="2.23621" transform="matrix(0.864727 -0.502242 0.505008 0.863117 33.2803 20.9257)" fill="white"/>
<rect width="4.89797" height="2.23621" transform="matrix(0.864727 0.502242 -0.505007 0.863118 9.04297 18.4657)" fill="white"/>
<rect width="4.89797" height="2.23621" transform="matrix(0.864727 0.502242 -0.505007 0.863118 34.4092 33.1108)" fill="white"/>
<rect width="4.89821" height="2.23649" transform="matrix(0.502065 0.86483 -0.863341 0.504624 15.6924 12.6179)" fill="white"/>
<rect width="4.89821" height="2.23649" transform="matrix(0.502065 0.86483 -0.863341 0.504624 30.3379 37.984)" fill="white"/>
<rect x="17.6152" y="0.645203" width="11.3284" height="7.24189" fill="white"/>
<path d="M15.0407 31.6812L13.3011 25.3194H14.0839L15.4134 30.5008H15.4756L16.8299 25.3194H17.6997L19.0541 30.5008H19.1162L20.4457 25.3194H21.2285L19.489 31.6812H18.6938L17.2897 26.6116H17.24L15.8359 31.6812H15.0407ZM22.1884 31.6812V25.3194H24.338C24.8371 25.3194 25.2451 25.4095 25.5619 25.5897C25.8808 25.7678 26.1169 26.009 26.2702 26.3134C26.4234 26.6179 26.5 26.9575 26.5 27.3323C26.5 27.7072 26.4234 28.0478 26.2702 28.3543C26.119 28.6608 25.885 28.9052 25.5681 29.0874C25.2513 29.2676 24.8454 29.3577 24.3504 29.3577H22.8097V28.6743H24.3256C24.6673 28.6743 24.9417 28.6152 25.1488 28.4972C25.3559 28.3792 25.506 28.2197 25.5992 28.0188C25.6944 27.8159 25.7421 27.587 25.7421 27.3323C25.7421 27.0776 25.6944 26.8498 25.5992 26.6489C25.506 26.448 25.3548 26.2907 25.1457 26.1768C24.9365 26.0608 24.659 26.0028 24.3132 26.0028H22.9588V31.6812H22.1884ZM27.741 25.3194H28.6605L30.8225 30.6002H30.8971L33.0591 25.3194H33.9786V31.6812H33.2579V26.8477H33.1958L31.2077 31.6812H30.5119L28.5238 26.8477H28.4617V31.6812H27.741V25.3194Z" fill="white"/>
<rect x="14.6821" y="0.669617" width="17.1604" height="4.13737" fill="white"/>
</svg>
