<svg width="538" height="595" viewBox="0 0 538 595" fill="none" xmlns="http://www.w3.org/2000/svg">
<circle cx="269" cy="325.725" r="252.38" stroke="black" stroke-width="33.2403"/>
<rect x="65.8647" y="312.71" width="58.3323" height="26.6456" fill="black"/>
<rect x="414.418" y="312.71" width="58.3323" height="26.6456" fill="black"/>
<rect x="255.985" y="529.476" width="58.3323" height="26.6456" transform="rotate(-90 255.985 529.476)" fill="black"/>
<rect x="255.985" y="180.923" width="58.3323" height="26.6456" transform="rotate(-90 255.985 180.923)" fill="black"/>
<rect width="58.2888" height="26.6142" transform="matrix(0.502065 -0.86483 0.863341 0.504624 156.048 495.451)" fill="black"/>
<rect width="58.2888" height="26.6142" transform="matrix(0.502065 -0.86483 0.863341 0.504624 330.325 193.595)" fill="black"/>
<rect width="58.2858" height="26.6109" transform="matrix(0.864727 -0.502242 0.505007 0.863117 86.4595 416.324)" fill="black"/>
<rect width="58.2858" height="26.6109" transform="matrix(0.864727 -0.502242 0.505007 0.863117 388.316 242.047)" fill="black"/>
<rect width="58.2858" height="26.6109" transform="matrix(0.864727 0.502242 -0.505007 0.863117 99.8982 212.774)" fill="black"/>
<rect width="58.2858" height="26.6109" transform="matrix(0.864727 0.502242 -0.505007 0.863117 401.754 387.051)" fill="black"/>
<rect width="58.2888" height="26.6142" transform="matrix(0.502065 0.86483 -0.863341 0.504624 179.025 143.185)" fill="black"/>
<rect width="58.2888" height="26.6142" transform="matrix(0.502065 0.86483 -0.863341 0.504624 353.302 445.041)" fill="black"/>
<rect x="201.904" y="0.709351" width="134.808" height="86.1785" fill="black"/>
<path d="M169.188 354.938L150.367 286.107H158.836L173.221 342.167H173.893L188.546 286.107H197.957L212.61 342.167H213.282L227.667 286.107H236.136L217.315 354.938H208.712L193.52 300.089H192.983L177.791 354.938H169.188ZM246.521 354.938V286.107H269.779C275.179 286.107 279.593 287.082 283.021 289.031C286.471 290.958 289.025 293.569 290.683 296.862C292.341 300.156 293.171 303.83 293.171 307.886C293.171 311.941 292.341 315.627 290.683 318.943C289.048 322.259 286.516 324.903 283.088 326.875C279.66 328.824 275.268 329.799 269.913 329.799H253.243V322.405H269.644C273.341 322.405 276.31 321.766 278.551 320.489C280.791 319.212 282.416 317.487 283.424 315.313C284.455 313.118 284.97 310.642 284.97 307.886C284.97 305.13 284.455 302.665 283.424 300.492C282.416 298.319 280.78 296.616 278.517 295.383C276.254 294.129 273.252 293.501 269.51 293.501H254.856V354.938H246.521ZM306.597 286.107H316.545L339.937 343.242H340.744L364.136 286.107H374.084V354.938H366.286V302.643H365.614L344.105 354.938H336.576L315.067 302.643H314.394V354.938H306.597V286.107Z" fill="black"/>
<rect x="167" y="1" width="204.208" height="49.2347" fill="black"/>
</svg>
